<svg width="65" height="66" viewBox="0 0 65 66" fill="none" xmlns="http://www.w3.org/2000/svg">
<path d="M25.2654 46.3296C25.2654 49.4582 20.7299 56 14.1327 56C5.88625 56 3 47.3251 3 46.3296C3 42.38 3.83118 39.2853 5.50902 37.0858M25.2654 46.3296C25.2654 37.7968 20.7299 33.1038 14.1327 33.1038C10.5391 33.1038 7.51646 34.4541 5.50902 37.0858M25.2654 46.3296C25.2654 40.9847 25.2654 30.6912 25.2654 21.8691M5.50902 37.0858L15.6446 12.1986C17.4313 10.5395 21.8569 8.21669 25.2654 12.1986C25.2654 14.8792 25.2654 18.2503 25.2654 21.8691M25.2654 21.8691H36" stroke="#921A1D"/>
<path d="M25 26H40" stroke="#921A1D"/>
<path d="M39.7346 46.3296C39.7346 49.4582 44.2701 56 50.8673 56C59.1137 56 62 47.3251 62 46.3296C62 42.38 61.1688 39.2853 59.491 37.0858M39.7346 46.3296C39.7346 37.7968 44.2701 33.1038 50.8673 33.1038C54.4609 33.1038 57.4835 34.4541 59.491 37.0858M39.7346 46.3296C39.7346 40.9847 39.7346 30.6912 39.7346 21.8691M59.491 37.0858L49.3555 12.1986C47.5687 10.5395 43.1431 8.21669 39.7346 12.1986C39.7346 14.8792 39.7346 18.2503 39.7346 21.8691M39.7346 21.8691H33" stroke="#921A1D"/>
</svg>
