<svg width="64" height="64" viewBox="0 0 64 64" fill="none" xmlns="http://www.w3.org/2000/svg">
<path d="M2 57H1.5V57.5H2V57ZM21.5855 31.4211L21.2378 31.7804L21.5886 32.1197L21.9363 31.7773L21.5855 31.4211ZM31.6891 21.4737L32.0517 21.1294L31.7011 20.7602L31.3383 21.1174L31.6891 21.4737ZM52.8161 44.2367C53.0921 44.2438 53.3217 44.0258 53.3288 43.7498L53.4453 39.2513C53.4524 38.9752 53.2344 38.7457 52.9584 38.7385C52.6823 38.7314 52.4527 38.9494 52.4456 39.2254L52.3421 43.2241L48.3435 43.1206C48.0674 43.1134 47.8378 43.3314 47.8307 43.6075C47.8235 43.8835 48.0415 44.1131 48.3176 44.1203L52.8161 44.2367ZM5.80952 23.9444V23.4444H5.30952V23.9444H5.80952ZM9.61905 23.9444H10.119V23.4444H9.61905V23.9444ZM13.4286 30.5556V30.0556H12.9286V30.5556H13.4286ZM17.2381 30.5556H17.7381V30.0556H17.2381V30.5556ZM21.5855 35.2778V34.7778H21.0855V35.2778H21.5855ZM24.8571 35.2778H25.3571V34.7778H24.8571V35.2778ZM29.1429 27.7222V27.2222H28.6429V27.7222H29.1429ZM32.4762 27.7222H32.9762V27.2222H32.4762V27.7222ZM36.2857 38.5833V38.0833H35.7857V38.5833H36.2857ZM39.1429 38.5833H39.6429V38.0833H39.1429V38.5833ZM43.4286 44.7222V44.2222H42.9286V44.7222H43.4286ZM46.7619 44.7222H47.2619V44.2222H46.7619V44.7222ZM1.5 6V12.4737H2.5V6H1.5ZM1.5 12.4737V57H2.5V12.4737H1.5ZM1.65235 12.833L21.2378 31.7804L21.9331 31.0617L2.34765 12.1143L1.65235 12.833ZM21.9363 31.7773L32.0399 21.83L31.3383 21.1174L21.2347 31.0648L21.9363 31.7773ZM31.3265 21.818L52.4664 44.0811L53.1916 43.3926L32.0517 21.1294L31.3265 21.818ZM2 57.5H5.80952V56.5H2V57.5ZM6.30952 57V23.9444H5.30952V57H6.30952ZM5.80952 24.4444H9.61905V23.4444H5.80952V24.4444ZM5.80952 57.5H9.61905V56.5H5.80952V57.5ZM9.11905 23.9444V57H10.119V23.9444H9.11905ZM9.61905 57.5H13.4286V56.5H9.61905V57.5ZM13.9286 57V30.5556H12.9286V57H13.9286ZM13.4286 31.0556H17.2381V30.0556H13.4286V31.0556ZM13.4286 57.5H17.2381V56.5H13.4286V57.5ZM16.7381 30.5556V57H17.7381V30.5556H16.7381ZM17.2381 57.5H21.5855V56.5H17.2381V57.5ZM22.0855 57V35.2778H21.0855V57H22.0855ZM21.5855 35.7778H24.8571V34.7778H21.5855V35.7778ZM21.5855 57.5H24.8571V56.5H21.5855V57.5ZM24.3571 35.2778V57H25.3571V35.2778H24.3571ZM24.8571 57.5H29.1429V56.5H24.8571V57.5ZM29.6429 57V27.7222H28.6429V57H29.6429ZM29.1429 28.2222H32.4762V27.2222H29.1429V28.2222ZM29.1429 57.5H32.4762V56.5H29.1429V57.5ZM31.9762 27.7222V57H32.9762V27.7222H31.9762ZM32.4762 57.5H36.2857V56.5H32.4762V57.5ZM36.7857 57V38.5833H35.7857V57H36.7857ZM36.2857 39.0833H39.1429V38.0833H36.2857V39.0833ZM36.2857 57.5H39.1429V56.5H36.2857V57.5ZM38.6429 38.5833V57H39.6429V38.5833H38.6429ZM39.1429 57.5H43.4286V56.5H39.1429V57.5ZM43.9286 57V44.7222H42.9286V57H43.9286ZM43.4286 45.2222H45.8095V44.2222H43.4286V45.2222ZM45.8095 45.2222H46.7619V44.2222H45.8095V45.2222ZM43.4286 57.5H46.7619V56.5H43.4286V57.5ZM46.7619 57.5H62V56.5H46.7619V57.5ZM46.2619 44.7222V57H47.2619V44.7222H46.2619Z" fill="var(--main)"/>
</svg>
