<svg width="64" height="65" viewBox="0 0 64 65" fill="none" xmlns="http://www.w3.org/2000/svg">
<circle cx="38.7097" cy="26.8387" r="24.2742" stroke="var(--main)"/>
<path d="M51.629 26.8387C51.629 29.3939 50.8713 31.8918 49.4517 34.0163C48.0321 36.1409 46.0144 37.7968 43.6537 38.7747C41.293 39.7525 38.6953 40.0083 36.1892 39.5098C33.6831 39.0113 31.3811 37.7809 29.5743 35.9741C27.7675 34.1673 26.537 31.8653 26.0385 29.3592C25.54 26.8531 25.7959 24.2554 26.7737 21.8947C27.7515 19.534 29.4075 17.5163 31.532 16.0967C33.6566 14.6771 36.1544 13.9194 38.7096 13.9194" stroke="var(--main)"/>
<path d="M33.5483 23.2258L40.258 29.9355L51.6128 15.4839M21.1612 43.871L16.5161 49.0323M16.5161 49.0323L13.9354 46.9678L2.06445 59.3549L6.70961 63.4839L19.0967 51.0968L16.5161 49.0323Z" stroke="var(--main)"/>
</svg>
