<svg width="64" height="64" viewBox="0 0 64 64" fill="none" xmlns="http://www.w3.org/2000/svg">
<path d="M14.6909 32.0565H7.56364V22.5809M14.6909 32.0565V27.0694H18.2545M14.6909 32.0565V39.0385M32 27.0694H22.3273M32 54H14.6909V45.0231M14.6909 39.0385H4M14.6909 39.0385V45.0231M14.6909 45.0231H7.56364V54M18.2545 27.0694V16.5963C18.7101 12.8772 20.0847 6.33425 32 5M18.2545 27.0694H22.3273M22.3273 27.0694C22.3273 26.2382 22.3273 22.9799 22.3273 16.5963C22.3273 12.0502 27.169 9.77096 32 8.98972" stroke="var(--main)"/>
<path d="M49.3091 32.0565H56.4364V22.5809M49.3091 32.0565V27.0694H45.7455M49.3091 32.0565V39.0385M32 27.0694H41.6727M32 54H49.3091V45.0231M49.3091 39.0385H60M49.3091 39.0385V45.0231M49.3091 45.0231H56.4364V54M45.7455 27.0694V16.5963C45.2899 12.8772 43.9153 6.33425 32 5M45.7455 27.0694H41.6727M41.6727 27.0694C41.6727 26.2382 41.6727 22.9799 41.6727 16.5963C41.6727 12.0502 36.831 9.77096 32 8.98972" stroke="var(--main)"/>
<circle cx="7.5" cy="20.5" r="2" stroke="var(--main)"/>
<circle cx="56.5" cy="20.5" r="2" stroke="var(--main)"/>
<circle cx="2.5" cy="38.5" r="2" stroke="var(--main)"/>
<circle cx="61.5" cy="38.5" r="2" stroke="var(--main)"/>
<circle cx="32" cy="37" r="3.5" stroke="var(--main)"/>
<circle cx="7.5" cy="56.5" r="2" stroke="var(--main)"/>
<circle cx="56.5" cy="56.5" r="2" stroke="var(--main)"/>
<path d="M30 40V49H34V40" stroke="var(--main)"/>
</svg>
