<svg width="31" height="25" viewBox="0 0 31 25" fill="none" xmlns="http://www.w3.org/2000/svg">
<path d="M2.11369 24.4818H7.04548V12.1181L0 6.66357V22.3C0 23.5055 0.945863 24.4819 2.11369 24.4819V24.4818Z" fill="#4285F4"/>
<path d="M23.9546 24.4818H28.8864C30.0542 24.4818 31.0001 23.5054 31.0001 22.3V6.66357L23.9546 12.1181V24.4818Z" fill="#34A853"/>
<path d="M23.9546 2.66351V12.1181L31.0001 6.66351V3.75445C31.0001 1.05807 28.0181 -0.481929 25.9273 1.13626L23.9546 2.66351Z" fill="#FBBC04"/>
<path fill-rule="evenodd" clip-rule="evenodd" d="M7.04541 12.1181V2.66357L15.4999 9.20907L23.9545 2.66357V12.1181L15.4999 18.6636L7.04541 12.1181Z" fill="#EA4335"/>
<path d="M0 3.75445V6.66351L7.04548 12.1181V2.66351L5.07274 1.13626C2.98193 -0.481927 0 1.05807 0 3.75432V3.75445Z" fill="#C5221F"/>
</svg>