<svg width="285" height="255" viewBox="0 0 285 255" fill="none" xmlns="http://www.w3.org/2000/svg">
<ellipse cx="149.95" cy="136.283" rx="117.859" ry="118.112" fill="var(--main)"/>
<ellipse cx="152.972" cy="88.4323" rx="21.7586" ry="21.8052" fill="#101010"/>
<path d="M196.49 94.4893C190.687 93.0356 182.387 95.095 178.962 96.3064C181.984 105.998 189.841 112.66 195.281 113.266C199.633 113.751 207.973 111.853 211.6 110.843C208.981 105.998 202.292 95.943 196.49 94.4893Z" fill="#101010"/>
<path d="M73.1906 98.1235C69.8059 91.8242 72.9891 87.4228 75.0038 86.0095H90.1141L104.62 173.836L83.4656 207.15L85.2788 109.632H77.4215C77.4215 108.42 76.5753 104.423 73.1906 98.1235Z" fill="#101010"/>
<path d="M188.028 122.352H140.884C136.533 123.805 101.195 175.855 84.07 201.698C83.667 204.727 84.5535 211.874 91.3229 216.235C98.0922 220.596 127.184 204.323 140.884 195.641L183.797 255L253.908 210.784L217.644 174.442L265.996 181.105L273.249 157.482L188.028 122.352Z" fill="#F3F3F3"/>
<path d="M10.9367 38.7648C16.2555 21.3207 30.4792 5.65321 36.9262 0L121.543 70.867L115.499 89.038L8.5191 87.2209C7.10882 78.3373 5.61795 56.209 10.9367 38.7648Z" fill="#C3C3C3"/>
<path d="M73.7951 119.929C71.3774 118.475 74.8024 110.439 76.8171 106.603L77.4215 109.632H79.2347C78.4703 113.929 75.7474 121.103 73.7951 119.929Z" fill="#C3C3C3"/>
<path d="M263.071 136.927C258.235 137.412 257.027 143.59 257.027 146.618C256.422 158.127 258.84 163.578 259.444 167.818C260.049 172.058 263.071 167.212 263.071 160.55C263.071 155.219 264.682 155.098 265.488 155.704L282.412 154.493V152.675L275.159 151.464L272.741 150.253H284.225C284.426 148.637 284.708 145.165 284.225 144.196C283.62 142.984 269.115 136.321 263.071 136.927Z" fill="#101010"/>
</svg>
