<svg width="40" height="40" viewBox="0 0 40 40" fill="none" xmlns="http://www.w3.org/2000/svg">
<circle cx="20.5" cy="13.5" r="6" fill="#C3C3C3" stroke="#C3C3C3"/>
<mask id="path-3-inside-1_1442_71741" fill="white">
<path d="M33 29.5C33 26.9804 31.6304 24.5641 29.1924 22.7825C26.7544 21.0009 23.4478 20 20 20C16.5522 20 13.2456 21.0009 10.8076 22.7825C8.36964 24.5641 7 26.9804 7 29.5L20 29.5H33Z"/>
</mask>
<path d="M33 29.5C33 26.9804 31.6304 24.5641 29.1924 22.7825C26.7544 21.0009 23.4478 20 20 20C16.5522 20 13.2456 21.0009 10.8076 22.7825C8.36964 24.5641 7 26.9804 7 29.5L20 29.5H33Z" fill="#C3C3C3" stroke="#C3C3C3" stroke-width="2" mask="url(#path-3-inside-1_1442_71741)"/>
<rect x="0.5" y="0.5" width="39" height="39" rx="19.5" stroke="#C3C3C3"/>
</svg>
