<svg width="64" height="64" viewBox="0 0 64 64" fill="none" xmlns="http://www.w3.org/2000/svg">
<path d="M8.53341 55.4666V42.4M8.53341 29.3333V42.4M8.53341 42.4L2.66675 36.8V21.8666C4.26675 20.6222 8.85341 18.1333 14.4001 18.1333C19.9467 18.1333 24.889 20.6222 26.6667 21.8666M26.6667 21.8666C27.5556 21.8666 29.7601 21.8666 31.4667 21.8666C33.1734 21.8666 35.7334 21.8666 36.8001 21.8666M26.6667 21.8666L20.8001 25.6V40.5333L26.6667 42.4M36.8001 21.8666L43.2001 25.6V40.5333L38.4001 42.4M36.8001 21.8666C39.1112 20.6222 44.9067 18.1333 49.6001 18.1333C54.2934 18.1333 59.3779 20.6222 61.3334 21.8666V36.8L56.0001 42.4M38.4001 42.4V31.4666M38.4001 42.4V58.6666M26.6667 42.4V31.4666M26.6667 42.4V58.6666M14.4001 42.4V55.4666M20.8001 42.4V55.4666M56.0001 42.4V29.3333M56.0001 42.4V55.4666M49.6001 42.4V55.4666M43.2001 42.4V55.4666M32.5334 45.3333V58.6666" stroke="#921A1D"/>
<circle cx="14.9334" cy="10.6667" r="5.9" stroke="#921A1D"/>
<circle cx="32.0001" cy="13.8667" r="5.9" stroke="#921A1D"/>
<circle cx="49.0667" cy="10.6667" r="5.9" stroke="#921A1D"/>
</svg>
