<svg width="24" height="24" viewBox="0 0 24 24" fill="none" xmlns="http://www.w3.org/2000/svg">
<g clip-path="url(#clip0_13_4007)">
<rect width="24" height="24" rx="12" fill="white"/>
<path fill-rule="evenodd" clip-rule="evenodd" d="M0 1.96453C0 0.87955 0.878351 0 1.96185 0H12V3.75092C12.3657 3.45288 12.8323 3.27422 13.3406 3.27422C14.5144 3.27422 15.4659 4.22706 15.4659 5.40246C15.4659 6.57785 14.5144 7.5307 13.3406 7.5307C12.8323 7.5307 12.3657 7.35203 12 7.05399V12.0164H7.04438C7.34201 11.6502 7.52044 11.1829 7.52044 10.6739C7.52044 9.49855 6.56889 8.5457 5.39509 8.5457C4.2213 8.5457 3.26975 9.49855 3.26975 10.6739C3.26975 11.1829 3.44818 11.6502 3.74581 12.0164H0V1.96453Z" fill="#921A1D" fill-opacity="0.75"/>
<path fill-rule="evenodd" clip-rule="evenodd" d="M24 22.0355C24 23.1205 23.1216 24 22.0381 24H12V20.2491C11.6343 20.5471 11.1677 20.7258 10.6594 20.7258C9.48561 20.7258 8.53406 19.7729 8.53406 18.5975C8.53406 17.4221 9.48561 16.4693 10.6594 16.4693C11.1677 16.4693 11.6343 16.648 12 16.946V11.9836H16.9556C16.658 12.3498 16.4796 12.8171 16.4796 13.3261C16.4796 14.5015 17.4311 15.4543 18.6049 15.4543C19.7787 15.4543 20.7302 14.5015 20.7302 13.3261C20.7302 12.8171 20.5518 12.3498 20.2542 11.9836H24V22.0355Z" fill="#921A1D" fill-opacity="0.25"/>
<path fill-rule="evenodd" clip-rule="evenodd" d="M1.96185 24C0.878351 24 -3.76261e-08 23.1205 -8.40402e-08 22.0355L-5.14046e-07 11.9836L3.71972 11.9836C3.43778 11.6225 3.26975 11.1679 3.26975 10.6739C3.26975 9.49855 4.2213 8.5457 5.39509 8.5457C6.56889 8.5457 7.52043 9.49855 7.52043 10.6739C7.52043 11.1679 7.35241 11.6225 7.07047 11.9836L12 11.9836L12 16.946C11.6343 16.648 11.1677 16.4693 10.6594 16.4693C9.48561 16.4693 8.53406 17.4221 8.53406 18.5975C8.53406 19.7729 9.48561 20.7258 10.6594 20.7258C11.1677 20.7258 11.6343 20.5471 12 20.2491L12 24L1.96185 24Z" fill="#921A1D"/>
<path fill-rule="evenodd" clip-rule="evenodd" d="M22.0381 8.58723e-08C23.1216 3.84463e-08 24 0.87955 24 1.96453L24 12.0164L20.2803 12.0164C20.5622 12.3775 20.7302 12.8321 20.7302 13.3261C20.7302 14.5015 19.7787 15.4543 18.6049 15.4543C17.4311 15.4543 16.4796 14.5015 16.4796 13.3261C16.4796 12.8321 16.6476 12.3775 16.9295 12.0164L12 12.0164L12 7.054C12.3657 7.35203 12.8323 7.5307 13.3406 7.5307C14.5144 7.5307 15.4659 6.57785 15.4659 5.40246C15.4659 4.22706 14.5144 3.27422 13.3406 3.27422C12.8323 3.27422 12.3657 3.45288 12 3.75092L12 5.25252e-07L22.0381 8.58723e-08Z" fill="#921A1D" fill-opacity="0.5"/>
</g>
<defs>
<clipPath id="clip0_13_4007">
<rect width="24" height="24" rx="12" fill="white"/>
</clipPath>
</defs>
</svg>
