<svg width="32" height="32" viewBox="0 0 32 32" fill="none" xmlns="http://www.w3.org/2000/svg">
<path fill-rule="evenodd" clip-rule="evenodd" d="M18.4043 2.57376L22.4222 4.75708L26.3997 7.33298C27.6806 8.16252 28.4769 9.56524 28.5332 11.0913L28.7141 16L28.5332 20.9087C28.4769 22.4348 27.6806 23.8375 26.3997 24.667L22.4222 27.2429L18.4043 29.4262C17.0125 30.1825 15.3329 30.1825 13.9412 29.4262L9.9232 27.2429L5.9457 24.667C5.74086 24.5344 5.54842 24.3871 5.36942 24.2269H2.78679C3.30188 25.0696 4.00418 25.7996 4.85679 26.3517L8.89904 28.9696L12.9848 31.1897C14.973 32.2701 17.3724 32.2701 19.3606 31.1897L23.4464 28.9696L27.4886 26.3517C29.3185 25.1667 30.456 23.1628 30.5364 20.9827L30.7201 16L30.5364 11.0173C30.456 8.83722 29.3185 6.83333 27.4886 5.64827L23.4464 3.03044L19.3606 0.81029C17.3724 -0.270097 14.973 -0.270096 12.9848 0.81029L8.89904 3.03044L4.85679 5.64828C3.87149 6.28637 3.08693 7.16187 2.56006 8.17444H4.97194C5.25294 7.85412 5.57951 7.57013 5.9457 7.33298L9.9232 4.75708L13.9412 2.57376C15.3329 1.81749 17.0125 1.81749 18.4043 2.57376Z" fill="url(#paint0_linear_183_63016)"/>
<path fill-rule="evenodd" clip-rule="evenodd" d="M4.74531 10.6878H1.97532C1.93839 10.6878 1.91992 10.706 1.91992 10.7425V14.5376C1.91992 14.5741 1.93839 14.5923 1.97532 14.5923H2.91712C2.95405 14.5923 2.97251 14.5741 2.97251 14.5376V11.6001H4.43136C4.44984 11.6001 4.46829 11.5818 4.48677 11.5636C4.59756 11.3081 4.70838 11.0344 4.81917 10.7608V10.706C4.78224 10.706 4.76376 10.6878 4.74531 10.6878ZM12.5382 13.6801C12.5382 13.6618 12.5197 13.6436 12.5013 13.6436H12.4459C12.2243 13.7166 11.7995 13.8078 11.4856 13.8078C10.8393 13.8078 10.5253 13.6436 10.5253 12.6401C10.5253 11.8555 10.6177 11.4723 11.4856 11.4723C11.7257 11.4723 11.9657 11.5088 12.2427 11.6001C12.2612 11.6001 12.2981 11.6001 12.2981 11.5636C12.4089 11.3629 12.5382 11.1257 12.6859 10.8155V10.7608C12.6859 10.7425 12.6675 10.7243 12.649 10.7243C12.2797 10.6148 11.818 10.5601 11.4117 10.5601C10.0452 10.5601 9.4358 11.1804 9.4358 12.6218C9.4358 14.0815 10.0452 14.7201 11.4117 14.7201C11.7441 14.7201 12.4274 14.6471 12.7598 14.5194C12.7967 14.5011 12.7967 14.4829 12.7967 14.4646C12.8337 14.4464 12.5382 13.6801 12.5382 13.6801ZM6.90589 10.5783C5.55783 10.5783 5.0223 11.1439 5.0223 12.6401C5.0223 14.1544 5.53936 14.7201 6.90589 14.7201C8.27242 14.7201 8.80795 14.1362 8.80795 12.6401C8.80795 11.1622 8.27242 10.5783 6.90589 10.5783ZM6.90589 13.8443C6.27802 13.8443 6.09336 13.6801 6.09336 12.6583C6.09336 11.5636 6.29649 11.4723 6.90589 11.4723C7.51528 11.4723 7.73689 11.5636 7.73689 12.6583C7.73689 13.6801 7.53376 13.8443 6.90589 13.8443Z" fill="#0065B1"/>
<path fill-rule="evenodd" clip-rule="evenodd" d="M22.1057 16.4732H19.2753C19.2377 16.4732 19.2188 16.4923 19.2188 16.5306V20.5109C19.2188 20.5492 19.2377 20.5683 19.2753 20.5683H20.2377C20.2754 20.5683 20.2942 20.5492 20.2942 20.5109V17.43H21.7851C21.8039 17.43 21.8416 17.4108 21.8416 17.3917C21.9548 17.1238 22.0681 16.8367 22.1813 16.5497V16.4923C22.1246 16.4923 22.1246 16.4732 22.1057 16.4732ZM18.5206 16.4923H17.5394C17.5206 16.4923 17.4827 16.5114 17.4827 16.5306C17.3318 17.1429 17.03 18.1763 16.5958 19.2479L15.6146 16.5114C15.6146 16.4923 15.577 16.4732 15.5579 16.4732H14.5767C14.5579 16.4732 14.539 16.4923 14.5202 16.4923C14.5014 16.5114 14.5014 16.5306 14.5202 16.5497L15.992 20.6066C15.8411 20.9128 15.6902 21.1615 15.577 21.4294C15.4826 21.6017 15.3882 21.793 15.2749 21.9844C15.2561 22.0035 15.2749 22.0227 15.2749 22.0418C15.2938 22.0609 15.3126 22.0801 15.3317 22.0801H16.3882C16.407 22.0801 16.4261 22.0609 16.4449 22.0418C16.6147 21.6973 16.86 21.1998 17.0676 20.7023C17.6903 19.2096 18.1997 17.8318 18.5583 16.5497C18.5583 16.5306 18.5583 16.5114 18.5394 16.4923H18.5206ZM9.40647 19.6115C9.40647 19.5924 9.38762 19.5732 9.36873 19.5732H9.31214C9.0857 19.6498 8.65168 19.7454 8.33091 19.7454C7.67047 19.7454 7.34967 19.5732 7.34967 18.5207C7.34967 17.6979 7.44403 17.296 8.33091 17.296C8.57621 17.296 8.82151 17.3343 9.10458 17.43C9.14231 17.43 9.16117 17.43 9.16117 17.3917C9.27441 17.1812 9.40647 16.9324 9.55744 16.6071V16.5497C9.55744 16.5306 9.53856 16.5114 9.51971 16.5114C9.12343 16.3775 8.65168 16.3201 8.25543 16.3201C6.87795 16.3201 6.25525 16.9707 6.25525 18.4825C6.25525 20.0133 6.87795 20.6831 8.27429 20.6831C8.61395 20.6831 9.31214 20.6066 9.6518 20.4726C9.68954 20.4535 9.68954 20.4343 9.68954 20.4152C9.68954 20.3961 9.40647 19.6115 9.40647 19.6115ZM5.91559 16.4923H4.93436C4.89662 16.4923 4.87774 16.5114 4.87774 16.5306C4.72679 17.1429 4.42487 18.1763 3.99088 19.2479L3.02853 16.4923C3.02853 16.4732 2.99077 16.454 2.97191 16.454H1.99068C1.97182 16.454 1.95294 16.4732 1.93408 16.4732C1.9152 16.4923 1.9152 16.5114 1.93408 16.5306L3.42478 20.5874C3.27383 20.8936 3.12286 21.1615 3.00965 21.4103C2.91529 21.5825 2.82096 21.7739 2.70773 21.9652C2.68887 21.9844 2.70773 22.0035 2.70773 22.0227C2.72661 22.0418 2.74546 22.0609 2.76435 22.0609H3.82105C3.83991 22.0609 3.85879 22.0418 3.87765 22.0227C4.04748 21.6782 4.29278 21.1807 4.50034 20.6831C5.12307 19.1905 5.63253 17.8127 5.99107 16.5306C5.99107 16.5114 5.99107 16.4923 5.97218 16.4732C5.95333 16.4923 5.93445 16.4923 5.91559 16.4923ZM26.2006 16.4732H25.2382C25.2005 16.4732 25.1817 16.4923 25.1817 16.5306V19.6115C24.974 19.6689 24.7664 19.688 24.5211 19.688C23.8796 19.688 23.7475 19.4967 23.7475 18.6355V16.5306C23.7475 16.4923 23.7287 16.4732 23.6908 16.4732H22.7284C22.6908 16.4732 22.6719 16.4923 22.6719 16.5306V18.7504C22.6719 20.1282 23.1249 20.6831 24.3135 20.6831C24.974 20.6831 25.7476 20.5109 26.1817 20.3387C26.2006 20.3387 26.2194 20.3004 26.2194 20.2813V16.5306C26.2571 16.4923 26.2382 16.4732 26.2006 16.4732ZM13.8031 16.4732H10.8783C10.8406 16.4732 10.8217 16.4923 10.8217 16.5306C10.7462 17.8701 10.5009 19.3244 10.1424 20.4918V20.53C10.1613 20.5492 10.1801 20.5492 10.199 20.5492H11.218C11.2369 20.5492 11.2746 20.53 11.2746 20.5109C11.5576 19.6115 11.7841 18.4059 11.8595 17.4108H12.8219V20.5109C12.8219 20.5492 12.8408 20.5683 12.8785 20.5683H13.8409C13.8786 20.5683 13.8975 20.5492 13.8975 20.5109V16.5306C13.8597 16.4923 13.8409 16.4732 13.8031 16.4732Z" fill="#EE3F58"/>
<defs>
<linearGradient id="paint0_linear_183_63016" x1="16.1727" y1="-0.921986" x2="16.1727" y2="32.922" gradientUnits="userSpaceOnUse">
<stop stop-color="#116BB7"/>
<stop offset="0.290811" stop-color="#116BB7"/>
<stop offset="0.486595" stop-color="#7A4A81"/>
<stop offset="0.635417" stop-color="#ED2E52"/>
<stop offset="0.979167" stop-color="#ED2E52"/>
</linearGradient>
</defs>
</svg>