<svg width="24" height="24" viewBox="0 0 24 24" fill="none" xmlns="http://www.w3.org/2000/svg">
<circle cx="12" cy="12" r="10.5" stroke="#C3C3C3"/>
<path d="M11.3602 13.9999C11.3602 13.7972 11.3709 13.6106 11.3922 13.4399C11.4242 13.2586 11.4829 13.0826 11.5682 12.9119C11.6642 12.7306 11.7922 12.5439 11.9522 12.3519C12.1229 12.1599 12.3469 11.9466 12.6242 11.7119C13.0722 11.3279 13.4135 10.9812 13.6482 10.6719C13.8829 10.3626 14.0002 10.0319 14.0002 9.67989C14.0002 9.16789 13.8295 8.74656 13.4882 8.41589C13.1469 8.08523 12.6775 7.91989 12.0802 7.91989C11.4829 7.91989 11.0135 8.08523 10.6722 8.41589C10.3309 8.74656 10.1602 9.16789 10.1602 9.67989H8.72021C8.72021 9.24256 8.79488 8.84256 8.94421 8.47989C9.10421 8.10656 9.32821 7.78656 9.61621 7.51989C9.91488 7.24256 10.2722 7.02923 10.6882 6.87989C11.1042 6.71989 11.5682 6.63989 12.0802 6.63989C12.5922 6.63989 13.0562 6.71989 13.4722 6.87989C13.8882 7.02923 14.2402 7.24256 14.5282 7.51989C14.8269 7.78656 15.0509 8.10656 15.2002 8.47989C15.3602 8.84256 15.4402 9.24256 15.4402 9.67989C15.4402 9.97856 15.3922 10.2612 15.2962 10.5279C15.2002 10.7946 15.0669 11.0506 14.8962 11.2959C14.7362 11.5306 14.5495 11.7599 14.3362 11.9839C14.1229 12.1972 13.9042 12.3999 13.6802 12.5919C13.4989 12.7412 13.3495 12.8852 13.2322 13.0239C13.1149 13.1519 13.0189 13.2799 12.9442 13.4079C12.8802 13.5252 12.8322 13.6479 12.8002 13.7759C12.7789 13.8932 12.7682 14.0212 12.7682 14.1599V14.4799H11.3602V13.9999ZM12.0802 18.1599C11.7709 18.1599 11.5042 18.0532 11.2802 17.8399C11.0669 17.6159 10.9602 17.3492 10.9602 17.0399C10.9602 16.7199 11.0669 16.4532 11.2802 16.2399C11.5042 16.0266 11.7709 15.9199 12.0802 15.9199C12.3895 15.9199 12.6509 16.0266 12.8642 16.2399C13.0882 16.4532 13.2002 16.7199 13.2002 17.0399C13.2002 17.3492 13.0882 17.6159 12.8642 17.8399C12.6509 18.0532 12.3895 18.1599 12.0802 18.1599Z" fill="#C3C3C3"/>
</svg>
