<svg width="25" height="24" viewBox="0 0 25 24" fill="none" xmlns="http://www.w3.org/2000/svg">
<path fill-rule="evenodd" clip-rule="evenodd" d="M12.1244 1L0 22H24.2487L12.1244 1ZM12.1244 3L1.73205 21H22.5167L12.1244 3Z" fill="#E78E24"/>
<path d="M11.3714 9H12.6286V15.7606H11.3714V9ZM12 19C11.7238 19 11.4857 18.9061 11.2857 18.7183C11.0952 18.5211 11 18.2864 11 18.0141C11 17.7324 11.0952 17.4977 11.2857 17.3099C11.4857 17.1221 11.7238 17.0282 12 17.0282C12.2762 17.0282 12.5095 17.1221 12.7 17.3099C12.9 17.4977 13 17.7324 13 18.0141C13 18.2864 12.9 18.5211 12.7 18.7183C12.5095 18.9061 12.2762 19 12 19Z" fill="#E78E24"/>
</svg>
