<svg width="64" height="64" viewBox="0 0 64 64" fill="none" xmlns="http://www.w3.org/2000/svg">
<path d="M21.3928 31.4943L8.62556 29.3337L19.3226 17.8073L34.5248 18.3623M21.3928 31.4943L26.9492 37.0507M21.3928 31.4943L34.5248 18.3623M21.3928 31.4943C20.2863 32.3969 17.8684 35.2969 17.0481 39.6755M34.5248 18.3623C38.1457 14.5755 46.9527 7.75881 53.2132 10.7868M10.7868 53.2132C10.8624 50.539 11.5188 44.6855 13.5391 42.6652C14.7542 41.4501 15.9293 40.4665 17.0481 39.6755M17.0481 39.6755L20.3327 39.4246L17.8579 46.1421M17.0481 39.6755C17.2647 39.5224 17.4791 39.3765 17.6913 39.2376L17.0481 39.6755Z" stroke="var(--main)" stroke-linecap="square"/>
<path d="M32.5057 42.6072L34.6663 55.3744L46.1926 44.6774L45.6377 29.4752M32.5057 42.6072L26.9492 37.0507M32.5057 42.6072L45.6377 29.4752M32.5057 42.6072C31.603 43.7136 28.7031 46.1316 24.3245 46.9519M45.6377 29.4752C49.4245 25.8543 56.2412 17.0472 53.2132 10.7868M10.7868 53.2132C13.461 53.1375 19.3145 52.4811 21.3348 50.4608C22.5498 49.2458 23.5335 48.0706 24.3245 46.9519M24.3245 46.9519L24.5754 43.6672L17.8579 46.1421M24.3245 46.9519C24.4776 46.7353 24.6234 46.5209 24.7624 46.3087L24.3245 46.9519Z" stroke="var(--main)" stroke-linecap="square"/>
<circle cx="44.0208" cy="19.9792" r="3.5" transform="rotate(45 44.0208 19.9792)" stroke="var(--main)"/>
</svg>
