<svg width="32" height="32" viewBox="0 0 32 32" fill="none" xmlns="http://www.w3.org/2000/svg">
<g clip-path="url(#clip0_183_63034)">
<path d="M11.3425 0.791993L20.6732 0.791994C29.196 0.791995 31.2078 2.81972 31.2078 11.3425L31.2078 20.6732C31.2078 29.196 29.1801 31.2078 20.6573 31.2078L11.3266 31.2078C2.80387 31.2078 0.79199 29.1801 0.79199 20.6573L0.791991 11.3266C0.791992 2.81971 2.81971 0.791992 11.3425 0.791993Z" fill="#5181B8"/>
<path d="M0 0L32 2.79753e-06L32 32L-2.79753e-06 32L0 0Z" fill="#5181B8"/>
<path fill-rule="evenodd" clip-rule="evenodd" d="M25.695 11.2635C25.8376 10.7882 25.695 10.4556 25.0297 10.4556L22.8119 10.4556C22.2416 10.4556 21.9881 10.7566 21.8455 11.0892C21.8455 11.0892 20.7208 13.8457 19.1208 15.6199C18.598 16.1427 18.3762 16.3011 18.0911 16.3011C17.9485 16.3011 17.7426 16.1427 17.7426 15.6674L17.7426 11.2635C17.7426 10.6932 17.5842 10.4556 17.1089 10.4556L13.6238 10.4556C13.2752 10.4556 13.0535 10.7249 13.0535 10.9625C13.0535 11.5011 13.8455 11.6278 13.9406 13.117L13.9406 16.3803C13.9406 17.0932 13.8139 17.2199 13.5287 17.2199C12.7842 17.2199 10.9465 14.4635 9.8693 11.2952C9.64752 10.709 9.44158 10.4556 8.87128 10.4556L6.65346 10.4556C6.0198 10.4556 5.89307 10.7566 5.89307 11.0892C5.89307 11.6754 6.63762 14.5902 9.39406 18.4397C11.2317 21.0694 13.8139 22.4952 16.1584 22.4952C17.5683 22.4952 17.7426 22.1783 17.7426 21.6397L17.7426 19.6437C17.7426 19.01 17.8693 18.8833 18.3287 18.8833C18.6614 18.8833 19.2158 19.0417 20.5307 20.309C22.0356 21.814 22.2891 22.4952 23.1287 22.4952L25.3465 22.4952C25.9802 22.4952 26.297 22.1783 26.1069 21.5605C25.901 20.9427 25.1881 20.0397 24.2376 18.9625C23.7149 18.3447 22.9386 17.6952 22.7168 17.3625C22.3842 16.9348 22.4792 16.7447 22.7168 16.3803C22.7168 16.3645 25.4257 12.5625 25.695 11.2635Z" fill="white"/>
</g>
<defs>
<clipPath id="clip0_183_63034">
<rect width="32" height="32" rx="16" fill="white"/>
</clipPath>
</defs>
</svg>